<?xml version="1.0" standalone="no"?>
<!DOCTYPE svg PUBLIC "-//W3C//DTD SVG 20010904//EN"
 "http://www.w3.org/TR/2001/REC-SVG-20010904/DTD/svg10.dtd">
<svg version="1.0" xmlns="http://www.w3.org/2000/svg"
 width="240.000000pt" height="222.000000pt" viewBox="0 0 240.000000 222.000000"
 preserveAspectRatio="xMidYMid meet">

<g transform="translate(0.000000,222.000000) scale(0.100000,-0.100000)"
fill="#000000" stroke="none">
<path d="M978 1626 c-36 -16 -82 -58 -104 -95 -10 -17 -22 -31 -26 -31 -4 0
-8 -9 -8 -20 0 -11 -4 -20 -8 -20 -5 0 -20 -21 -33 -47 -13 -27 -27 -49 -31
-51 -5 -2 -8 -12 -8 -23 0 -10 -4 -19 -10 -19 -5 0 -10 -9 -10 -20 0 -11 -3
-20 -7 -20 -9 0 -33 -49 -33 -67 0 -7 -4 -13 -10 -13 -5 0 -10 -7 -10 -15 0
-8 -4 -24 -10 -35 -5 -11 -14 -29 -20 -40 -5 -11 -10 -29 -10 -39 0 -11 -4
-22 -9 -25 -4 -3 -11 -25 -14 -49 -3 -23 -9 -51 -13 -60 -3 -9 -2 -17 2 -17
10 0 34 70 34 100 0 11 5 20 10 20 6 0 10 9 10 20 0 11 4 28 9 38 5 9 17 35
26 57 9 22 37 81 62 130 26 50 51 100 57 112 6 13 14 23 19 23 4 0 7 8 7 18 0
10 9 24 20 32 11 8 20 19 20 26 0 6 19 31 43 56 47 50 98 68 193 68 53 0 60
-3 91 -36 33 -37 40 -62 35 -142 -2 -39 -14 -53 -63 -69 -68 -25 -139 -9 -139
29 0 20 18 33 53 42 15 4 25 11 22 17 -14 22 -87 -13 -101 -49 -28 -72 -34
-107 -34 -210 0 -61 -5 -124 -11 -139 -26 -63 -35 -79 -61 -106 -26 -25 -36
-47 -22 -47 9 0 34 28 34 37 0 5 9 15 20 23 11 8 20 22 20 32 0 10 5 18 10 18
6 0 10 8 10 17 0 9 7 24 16 34 13 14 13 21 4 40 -16 29 -4 205 16 237 13 20
17 21 42 8 26 -13 44 -13 129 -1 62 9 93 52 93 128 0 32 -4 57 -10 57 -5 0
-10 7 -10 15 0 9 -16 31 -35 50 l-34 35 -93 -1 c-51 0 -105 -6 -120 -13z"/>
<path d="M1456 1167 c-22 -6 -55 -26 -74 -44 l-34 -33 -59 37 c-54 33 -65 36
-131 35 -43 0 -74 -5 -76 -11 -2 -6 -9 -11 -17 -11 -7 0 -18 -7 -25 -15 -7 -8
-10 -15 -7 -15 2 0 21 7 40 15 81 34 202 11 247 -46 15 -18 17 -18 59 21 42
39 45 40 116 40 86 0 121 -15 170 -72 32 -38 35 -47 35 -105 0 -54 -4 -70 -32
-113 -18 -27 -38 -50 -44 -50 -5 0 -20 -9 -32 -20 -12 -11 -28 -20 -37 -20 -8
0 -15 -4 -15 -10 0 -5 -9 -10 -19 -10 -11 0 -23 -4 -26 -10 -3 -5 -17 -10 -30
-10 -13 0 -27 -4 -30 -10 -3 -5 -21 -10 -39 -10 -17 0 -36 -4 -42 -10 -5 -5
-75 -12 -156 -16 -92 -4 -145 -11 -141 -17 5 -8 209 -4 278 7 95 13 254 75
293 113 8 7 21 17 31 22 35 19 87 155 70 182 -5 8 -9 25 -9 37 0 23 -35 83
-52 90 -5 2 -14 9 -21 15 -16 16 -56 34 -87 40 -14 3 -34 8 -45 10 -11 3 -38
0 -59 -6z"/>
<path d="M1048 1056 c-30 -25 -35 -36 -15 -36 13 0 67 43 67 54 0 13 -26 5
-52 -18z"/>
<path d="M1280 892 c0 -20 -57 -32 -145 -32 -52 0 -96 4 -99 9 -7 11 -46 21
-46 12 0 -32 208 -79 225 -51 3 6 13 10 21 10 8 0 29 13 47 30 25 23 28 30 15
30 -10 0 -18 -4 -18 -8z"/>
<path d="M590 849 c0 -26 37 -69 58 -69 7 0 12 -4 12 -10 0 -5 4 -10 10 -10 5
0 38 -13 72 -29 35 -15 92 -35 128 -44 73 -18 171 -27 164 -15 -3 4 -27 8 -54
8 -27 0 -52 5 -55 10 -3 6 -17 10 -30 10 -13 0 -37 5 -52 11 -15 6 -39 16 -53
21 -14 6 -33 14 -42 19 -10 5 -25 9 -33 9 -8 0 -15 5 -15 10 0 6 -9 10 -20 10
-11 0 -20 5 -20 10 0 6 -9 10 -20 10 -12 0 -20 7 -20 18 0 9 -7 26 -15 36 -14
19 -15 19 -15 -5z"/>
</g>
</svg>
