<?xml version="1.0" standalone="no"?>
<!DOCTYPE svg PUBLIC "-//W3C//DTD SVG 20010904//EN"
 "http://www.w3.org/TR/2001/REC-SVG-20010904/DTD/svg10.dtd">
<svg version="1.0" xmlns="http://www.w3.org/2000/svg"
 width="236.000000pt" height="222.000000pt" viewBox="0 0 236.000000 222.000000"
 preserveAspectRatio="xMidYMid meet">

<g transform="translate(0.000000,222.000000) scale(0.100000,-0.100000)"
fill="#000000" stroke="none">
<path d="M864 1845 c-40 -18 -72 -58 -80 -101 -9 -51 2 -76 51 -113 45 -34 56
-51 32 -51 -7 0 -26 -14 -43 -31 l-29 -30 2 -292 c1 -161 4 -332 6 -382 8
-176 11 -471 4 -481 -3 -6 -4 -14 0 -18 3 -3 170 -6 370 -6 316 0 363 2 363
15 0 8 -9 15 -19 15 -31 0 -48 25 -55 80 -4 28 -11 61 -15 73 -5 12 -14 42
-21 67 -7 25 -18 57 -26 71 -7 14 -11 29 -8 32 3 3 -3 32 -14 64 -11 32 -25
78 -31 103 -7 25 -20 59 -28 75 -10 18 -17 59 -19 103 -2 69 -1 72 20 72 25 0
46 -20 64 -63 15 -35 39 -44 60 -24 13 14 14 21 3 55 -7 21 -24 47 -37 57 -13
10 -24 24 -24 31 0 7 -14 26 -31 43 -30 30 -33 31 -123 31 -106 0 -123 8 -176
85 -23 34 -30 55 -31 97 -2 88 -11 111 -52 137 -40 26 -47 46 -19 55 34 11 82
66 82 94 0 57 -20 101 -58 127 -41 28 -71 30 -118 10z m110 -56 c49 -58 25
-126 -51 -145 -89 -23 -139 108 -60 156 47 29 81 26 111 -11z m-30 -253 c33
-14 37 -20 50 -78 7 -31 2 -33 -34 -13 -35 20 -57 18 -80 -5 -36 -36 -27 -89
26 -160 26 -34 57 -68 70 -77 19 -12 24 -24 24 -58 0 -71 -4 -75 -79 -75 -108
0 -105 -7 -99 223 5 211 13 241 60 250 13 2 24 5 26 6 1 0 18 -5 36 -13z m59
-197 c77 -102 105 -128 146 -131 33 -3 36 -6 39 -35 3 -33 3 -33 -42 -33 -59
0 -94 14 -105 42 -5 13 -32 46 -61 73 -73 71 -95 110 -82 141 17 36 48 19 105
-57z m331 -161 c22 -31 12 -38 -55 -38 -55 0 -59 2 -59 23 0 32 7 37 56 37 33
0 47 -5 58 -22z m-177 -68 l73 0 -2 -37 c-1 -21 13 -92 31 -158 38 -140 43
-156 110 -390 10 -33 23 -73 30 -90 19 -46 4 -59 -69 -63 -87 -4 -90 -2 -77
48 10 34 9 46 -5 68 -9 15 -24 43 -33 62 -9 19 -48 100 -87 180 -91 186 -86
172 -92 266 -7 102 -1 128 28 120 11 -3 54 -6 93 -6z m-152 -147 c5 -65 15
-96 57 -183 28 -58 69 -143 90 -189 22 -47 48 -95 58 -108 19 -24 17 -65 -5
-83 -8 -7 -30 -8 -61 -3 l-48 8 -32 75 c-34 83 -56 128 -161 335 -112 218
-111 225 11 225 l84 0 7 -77z m-81 -273 c39 -76 44 -95 50 -180 7 -89 6 -97
-13 -114 -16 -14 -30 -17 -57 -13 -21 4 -42 11 -48 17 -7 7 -12 87 -14 223
l-3 212 21 -30 c12 -16 41 -68 64 -115z m124 -264 c13 -32 13 -39 1 -47 -24
-15 -52 -11 -45 7 3 9 6 31 6 51 0 44 18 39 38 -11z"/>
</g>
</svg>
