<?xml version="1.0" standalone="no"?>
<!DOCTYPE svg PUBLIC "-//W3C//DTD SVG 20010904//EN"
 "http://www.w3.org/TR/2001/REC-SVG-20010904/DTD/svg10.dtd">
<svg version="1.0" xmlns="http://www.w3.org/2000/svg"
 width="122.000000pt" height="114.000000pt" viewBox="0 0 122.000000 114.000000"
 preserveAspectRatio="xMidYMid meet">

<g transform="translate(0.000000,114.000000) scale(0.100000,-0.100000)"
fill="#000000" stroke="none">
<path d="M995 1131 c-11 -5 -24 -6 -29 -3 -5 3 -6 0 -2 -6 6 -11 -30 -28 -49
-23 -5 1 -7 -1 -3 -5 10 -10 -29 -37 -42 -29 -6 4 -9 1 -8 -7 2 -7 -5 -12 -14
-12 -10 1 -16 -2 -13 -6 6 -9 -34 -26 -50 -21 -5 1 -7 -1 -3 -5 11 -10 -30
-37 -44 -28 -7 4 -8 3 -4 -4 6 -10 -6 -17 -18 -9 -2 1 -12 -5 -22 -14 -11 -9
-34 -21 -51 -29 -18 -7 -33 -17 -33 -22 0 -5 -4 -6 -10 -3 -5 3 -10 2 -10 -3
0 -6 -20 -18 -45 -29 -25 -10 -45 -22 -45 -26 0 -5 -4 -5 -10 -2 -5 3 -10 1
-10 -5 0 -6 -4 -8 -10 -5 -5 3 -10 1 -10 -6 0 -7 -3 -9 -6 -6 -4 4 -21 -3 -38
-16 -16 -12 -37 -22 -45 -24 -8 -1 -18 -8 -22 -15 -5 -7 -9 -10 -9 -6 0 4 -17
-2 -37 -13 -21 -12 -78 -44 -128 -71 -107 -59 -103 -56 -109 -90 -5 -27 14
-58 35 -58 6 0 8 -4 5 -9 -7 -11 48 1 94 22 19 8 79 34 132 57 57 25 95 47 91
53 -4 6 0 8 10 4 10 -4 17 -1 17 6 1 7 9 -10 20 -36 10 -27 24 -55 30 -63 7
-8 9 -14 6 -14 -4 0 0 -7 8 -16 20 -20 20 -40 1 -48 -8 -3 -14 -9 -13 -13 2
-5 -9 -21 -24 -37 -14 -16 -32 -40 -40 -55 -7 -14 -17 -29 -23 -33 -5 -4 -10
-12 -10 -18 0 -6 -7 -15 -15 -20 -8 -5 -11 -10 -6 -10 6 0 0 -9 -12 -20 -12
-11 -19 -27 -16 -35 4 -8 1 -15 -5 -15 -6 0 -10 -3 -10 -7 1 -5 1 -10 -1 -13
-1 -3 -3 -15 -6 -28 -2 -12 -11 -33 -19 -46 -14 -20 -18 -98 -5 -92 6 3 40
-31 35 -36 -2 -2 14 -3 36 -3 21 0 39 4 39 8 0 5 4 6 9 2 12 -7 24 12 27 44 2
14 8 27 14 29 5 2 10 12 10 22 0 9 7 33 15 53 8 19 12 37 9 40 -3 3 3 16 15
28 12 13 21 19 21 14 0 -5 13 4 30 20 16 15 27 31 25 35 -2 4 13 24 34 44 34
33 42 36 60 27 12 -7 21 -14 21 -17 0 -3 -5 -2 -12 2 -7 4 -8 3 -4 -5 4 -6 11
-9 15 -7 12 8 52 -24 45 -35 -3 -5 8 -14 25 -20 17 -6 31 -17 31 -25 0 -7 13
-23 30 -35 29 -22 55 -73 44 -90 -3 -5 0 -9 6 -9 6 0 8 -4 5 -10 -3 -5 -1 -10
5 -10 6 0 17 -15 25 -34 8 -19 19 -38 25 -41 6 -4 8 -11 4 -16 -3 -5 -2 -9 3
-8 4 1 16 -1 27 -6 11 -5 21 -4 25 3 4 6 17 13 29 15 12 2 24 6 28 10 9 9 9
70 0 85 -4 7 -4 12 1 12 4 0 4 4 -2 8 -19 13 -35 52 -35 82 0 16 -5 30 -11 30
-6 0 -9 5 -7 12 2 6 -4 20 -14 30 -10 10 -16 23 -13 28 3 5 -3 15 -13 22 -10
7 -21 21 -25 31 -4 10 -11 16 -16 12 -10 -6 -37 34 -33 48 1 5 -2 6 -7 3 -12
-8 -42 34 -34 47 3 6 1 7 -6 3 -17 -11 -49 69 -49 123 -1 24 -6 47 -13 51 -6
4 -12 25 -13 46 0 22 -5 42 -10 45 -15 12 3 55 28 69 14 7 23 17 20 22 -3 4 2
8 10 8 9 0 16 5 16 11 0 5 5 7 12 3 6 -4 8 -3 4 4 -8 13 50 56 64 47 6 -4 9
-1 8 7 -2 7 5 12 14 12 10 -1 15 2 12 7 -3 5 0 9 7 9 6 0 17 7 23 16 6 8 19
16 29 18 9 1 31 12 48 25 25 19 30 28 28 59 -4 62 -39 85 -94 63z m57 -47 c10
-22 10 -28 -6 -40 -11 -7 -23 -11 -29 -7 -6 3 -7 1 -3 -5 3 -6 -4 -14 -16 -18
-13 -4 -26 -12 -30 -18 -4 -6 -11 -11 -15 -11 -16 0 -168 -114 -181 -135 -8
-13 -19 -19 -28 -16 -9 3 -12 1 -9 -4 3 -6 -1 -10 -9 -10 -17 0 -21 -15 -7
-24 5 -3 7 -15 4 -26 -3 -11 0 -27 7 -35 7 -9 10 -18 7 -21 -3 -3 3 -26 13
-50 12 -27 15 -44 8 -44 -7 0 -7 -4 1 -13 6 -8 8 -17 5 -20 -4 -3 1 -23 11
-43 9 -20 18 -43 19 -52 2 -8 10 -20 19 -27 9 -7 17 -15 17 -19 0 -8 116 -155
135 -171 13 -11 23 -38 31 -82 3 -15 10 -31 17 -35 6 -4 8 -10 5 -14 -4 -3 -1
-13 7 -21 22 -21 18 -46 -11 -66 -20 -15 -28 -16 -39 -7 -8 7 -15 20 -15 30 0
9 -9 27 -20 40 -11 13 -20 28 -21 34 -2 30 -9 47 -28 68 -12 12 -19 29 -16 37
3 9 3 12 -1 9 -3 -4 -17 6 -31 23 -14 16 -28 27 -32 25 -4 -3 -17 9 -30 25
-13 16 -29 29 -36 29 -7 0 -20 11 -28 23 -27 42 -67 26 -143 -59 -36 -41 -69
-72 -74 -69 -4 3 -13 -2 -20 -10 -7 -8 -10 -15 -6 -15 3 0 -4 -18 -15 -39 -11
-22 -21 -53 -21 -70 -1 -17 -5 -31 -9 -31 -5 0 -6 -7 -3 -15 4 -8 1 -15 -5
-15 -6 0 -11 -6 -11 -14 0 -7 -10 -13 -22 -12 -28 1 -56 52 -39 69 6 6 11 22
11 35 0 13 4 21 9 18 5 -4 7 4 3 16 -3 14 -1 19 6 14 8 -5 10 -2 6 8 -3 9 -2
16 3 16 5 0 9 10 9 23 -1 12 4 21 12 20 6 -2 12 5 12 15 0 9 10 28 21 42 11
14 17 19 13 11 -5 -9 -3 -12 5 -7 6 4 9 12 5 17 -8 13 24 61 36 54 5 -3 12 0
16 6 4 8 3 9 -4 5 -17 -10 -15 9 1 23 8 6 18 7 22 3 5 -4 5 -2 2 4 -4 6 1 20
9 30 9 10 12 13 8 5 -4 -9 -3 -12 3 -8 7 4 8 20 3 41 -4 19 -5 37 -2 40 3 4 1
6 -5 6 -14 0 -35 49 -27 62 4 6 2 8 -3 5 -12 -8 -36 50 -27 64 3 5 0 9 -6 9
-6 0 -9 3 -7 8 3 4 -6 7 -19 7 -13 0 -24 -4 -24 -8 0 -5 -4 -6 -9 -2 -5 3 -16
-1 -24 -9 -8 -8 -17 -12 -21 -9 -3 4 -6 1 -6 -5 0 -7 -3 -11 -8 -10 -12 5 -92
-34 -92 -44 0 -5 -4 -7 -9 -3 -5 3 -16 -2 -24 -10 -9 -8 -22 -15 -29 -15 -7 0
-27 -9 -44 -19 -19 -12 -36 -16 -45 -11 -7 5 -17 6 -22 3 -5 -3 -7 5 -5 18 2
17 12 25 34 30 28 5 99 42 114 58 3 4 12 7 20 9 8 2 25 14 39 28 13 14 30 23
38 20 7 -3 13 -1 13 4 0 6 3 9 7 9 20 -3 32 3 56 27 14 14 31 23 37 19 5 -3
10 -1 10 5 0 6 4 9 10 5 5 -3 18 3 29 14 21 21 101 65 101 56 0 -3 9 4 21 16
12 12 27 18 37 14 9 -3 13 -3 9 1 -8 8 29 37 41 31 4 -2 75 38 157 89 83 51
153 94 158 94 4 0 13 -12 19 -26z m-462 -787 c0 -2 -12 -14 -27 -28 l-28 -24
24 28 c23 25 31 32 31 24z"/>
<path d="M405 1091 c-29 -6 -30 -9 -35 -70 -4 -50 -1 -70 13 -93 9 -16 22 -26
27 -23 6 3 10 1 10 -5 0 -6 4 -9 9 -5 5 3 12 2 14 -3 7 -10 70 -7 93 6 31 16
51 45 59 81 5 25 4 32 -5 26 -8 -5 -11 -1 -8 11 2 11 -4 26 -12 34 -9 8 -11
13 -5 10 6 -3 2 3 -8 13 -11 9 -33 17 -51 17 -17 0 -40 2 -51 4 -11 2 -33 1
-50 -3z m122 -47 c7 -6 15 -24 19 -39 l7 -28 -26 19 c-15 10 -27 22 -27 26 0
4 -7 5 -15 2 -8 -4 -15 -2 -15 4 0 5 -6 10 -12 9 -36 -1 -58 4 -58 14 0 14
112 9 127 -7z m-92 -44 c4 -6 10 -8 15 -5 5 3 11 1 15 -5 4 -6 11 -8 16 -5 5
4 9 1 9 -5 0 -6 4 -9 9 -5 5 3 12 -4 16 -15 4 -11 12 -18 18 -14 7 3 3 -2 -7
-10 -22 -18 -76 -22 -76 -6 0 6 -3 9 -7 9 -22 -4 -32 3 -31 19 0 9 -3 25 -7
35 -5 12 -3 17 8 17 9 0 19 -5 22 -10z"/>
<path d="M986 902 c-9 -15 23 -84 51 -110 16 -15 23 -30 20 -42 -3 -13 -1 -18
6 -13 6 4 8 -2 5 -15 -4 -14 -2 -20 5 -15 6 4 8 -2 5 -15 -4 -12 -2 -25 4 -28
5 -3 7 -12 4 -20 -3 -8 0 -14 5 -14 7 0 9 -11 7 -25 -3 -13 -1 -22 4 -19 5 3
6 -13 2 -35 -4 -26 -2 -46 5 -55 7 -8 10 -28 8 -45 -5 -27 -3 -30 13 -21 9 5
19 8 21 6 11 -12 7 70 -4 88 -9 13 -11 29 -7 41 4 11 3 26 -2 32 -6 7 -8 19
-5 27 3 8 1 16 -5 18 -5 2 -12 19 -13 38 -2 19 -5 36 -6 38 -1 1 -2 5 -4 10
-15 53 -48 121 -62 126 -9 4 -13 13 -9 23 4 10 4 14 0 10 -4 -4 -15 0 -25 9
-10 9 -20 11 -23 6z"/>
<path d="M866 821 c-8 -12 4 -41 16 -41 5 0 6 -4 3 -10 -3 -5 -1 -10 5 -10 6
0 9 -4 6 -8 -3 -5 4 -23 15 -40 10 -18 19 -41 19 -52 0 -11 4 -20 10 -20 5 0
7 -7 4 -15 -4 -10 0 -15 14 -15 27 0 33 22 17 54 -8 14 -12 26 -9 26 3 0 -2 7
-11 16 -9 9 -14 23 -11 31 4 9 2 11 -6 7 -8 -5 -9 -2 -5 9 4 10 1 17 -5 17 -6
0 -9 3 -6 6 6 5 -35 54 -45 54 -3 0 -8 -4 -11 -9z"/>
<path d="M953 565 c-4 -11 0 -22 10 -30 9 -7 14 -15 10 -18 -3 -4 -3 -7 1 -7
4 0 13 6 21 13 14 15 11 24 -17 46 -15 11 -19 11 -25 -4z"/>
</g>
</svg>
