<?xml version="1.0" standalone="no"?>
<!DOCTYPE svg PUBLIC "-//W3C//DTD SVG 20010904//EN"
 "http://www.w3.org/TR/2001/REC-SVG-20010904/DTD/svg10.dtd">
<svg version="1.0" xmlns="http://www.w3.org/2000/svg"
 width="266.000000pt" height="242.000000pt" viewBox="0 0 266.000000 242.000000"
 preserveAspectRatio="xMidYMid meet">

<g transform="translate(0.000000,242.000000) scale(0.100000,-0.100000)"
fill="#000000" stroke="none">
<path d="M1299 1821 c-24 -15 -59 -44 -77 -64 -28 -29 -35 -44 -39 -94 -7 -78
9 -126 61 -178 52 -52 83 -65 152 -65 73 0 110 17 165 76 39 43 47 57 52 105
10 79 -7 126 -62 179 -35 35 -59 48 -99 58 -79 18 -103 15 -153 -17z m141 -12
c78 -18 138 -79 141 -146 5 -82 -1 -103 -38 -144 -83 -92 -191 -94 -284 -7
-36 34 -53 90 -46 151 7 56 28 84 96 128 49 32 64 34 131 18z"/>
<path d="M1228 1374 c-4 -3 -12 -6 -20 -8 -51 -8 -99 -43 -132 -96 -43 -70
-59 -116 -85 -250 -42 -217 -109 -322 -276 -436 -47 -32 -85 -61 -85 -65 0
-18 19 -16 51 5 19 12 47 31 63 42 l29 19 -6 -33 c-5 -27 -2 -38 22 -65 28
-30 33 -32 93 -31 99 2 338 24 383 35 22 5 78 13 125 17 58 5 84 11 83 20 -2
7 -1 12 3 12 3 0 86 -20 185 -45 219 -55 279 -58 329 -17 26 22 34 36 34 65 1
20 4 37 7 37 3 0 32 -17 65 -39 56 -36 74 -42 74 -21 0 5 -26 26 -57 46 -114
73 -130 84 -160 117 -35 37 -97 141 -106 177 -3 14 -14 59 -25 100 -11 41 -23
100 -27 130 -5 34 -23 85 -47 132 -74 142 -109 158 -347 158 -92 0 -170 -3
-173 -6z m394 -47 c57 -26 130 -152 143 -247 4 -30 16 -89 27 -130 11 -41 22
-86 25 -100 9 -38 72 -141 112 -184 20 -21 28 -36 19 -33 -26 9 -126 25 -203
33 -79 7 -153 35 -185 69 -24 26 -38 98 -23 117 6 7 14 35 18 62 3 27 17 72
30 100 13 28 26 74 29 101 3 28 7 59 8 70 2 12 -3 20 -12 20 -14 0 -26 -37
-33 -105 -2 -19 -13 -55 -24 -80 -11 -25 -23 -64 -27 -85 -4 -22 -12 -46 -18
-53 -6 -7 -9 -39 -5 -78 4 -57 9 -70 33 -91 55 -46 124 -70 236 -82 176 -19
239 -47 222 -98 -13 -34 -47 -53 -99 -52 -42 0 -302 61 -515 122 -56 16 -121
11 -121 -8 0 -6 31 -13 68 -17 38 -4 83 -13 102 -21 32 -14 32 -14 -56 -21
-50 -3 -104 -11 -122 -16 -32 -9 -281 -32 -372 -34 -26 -1 -53 5 -62 13 -20
16 -22 64 -4 80 30 25 108 43 213 51 141 10 217 42 241 99 23 54 27 107 13
154 -7 23 -23 76 -35 117 -13 41 -28 102 -35 135 -17 83 -18 87 -30 80 -12 -8
-13 -59 -1 -99 5 -17 20 -69 34 -116 14 -47 31 -104 38 -128 10 -35 10 -53 0
-90 -6 -25 -17 -53 -24 -60 -26 -32 -102 -54 -212 -62 -60 -4 -123 -13 -138
-19 -50 -19 -50 -12 -2 41 78 87 116 172 146 328 43 224 84 289 209 334 8 3
92 4 185 2 128 -2 179 -7 207 -19z"/>
</g>
</svg>
