<?xml version="1.0" standalone="no"?>
<!DOCTYPE svg PUBLIC "-//W3C//DTD SVG 20010904//EN"
 "http://www.w3.org/TR/2001/REC-SVG-20010904/DTD/svg10.dtd">
<svg version="1.0" xmlns="http://www.w3.org/2000/svg"
 width="136.000000pt" height="130.000000pt" viewBox="0 0 136.000000 130.000000"
 preserveAspectRatio="xMidYMid meet">

<g transform="translate(0.000000,130.000000) scale(0.100000,-0.100000)"
fill="#000000" stroke="none">
<path d="M115 1082 c-17 -2 -48 -18 -70 -36 -40 -34 -40 -35 -38 -100 1 -44 8
-80 22 -110 26 -52 114 -145 195 -206 53 -40 221 -140 235 -140 3 0 19 -7 36
-16 16 -8 95 -42 175 -75 80 -34 181 -76 225 -94 155 -66 288 -108 345 -109
l55 -1 3 49 c2 26 -1 69 -7 94 -8 41 -6 53 15 98 19 41 24 67 24 135 0 55 5
94 15 113 8 15 15 44 15 62 l0 34 -58 0 c-33 0 -96 -5 -141 -11 -63 -9 -89 -8
-111 1 -17 7 -30 17 -30 22 0 5 -7 16 -15 24 -30 31 -17 36 80 32 81 -2 95 -1
93 12 -3 12 -25 16 -103 20 l-100 5 -20 61 c-11 33 -35 78 -53 100 l-32 39
-43 -48 -42 -47 -112 0 c-105 0 -140 -8 -111 -26 14 -9 199 -14 233 -7 11 2
31 20 44 39 13 19 29 33 35 31 23 -7 71 -133 55 -143 -5 -3 2 -19 16 -36 14
-16 25 -34 25 -40 0 -6 16 -27 36 -46 l36 -35 74 7 c41 3 108 9 149 12 41 4
75 3 75 -1 0 -5 -8 -17 -17 -27 -13 -15 -19 -45 -23 -126 -5 -76 -12 -118 -26
-145 l-19 -38 -60 6 c-57 6 -179 36 -310 75 -33 10 -86 26 -117 35 -32 8 -58
18 -58 21 0 3 22 28 50 56 43 43 51 48 57 32 11 -30 59 -84 74 -84 18 0 9 21
-32 76 -36 49 -39 58 -27 72 39 47 51 138 22 166 -39 40 -103 27 -133 -26 -13
-22 -13 -32 -1 -68 8 -23 22 -53 32 -65 10 -13 18 -27 18 -32 0 -6 -22 -33
-50 -61 -45 -46 -52 -50 -77 -42 -16 4 -53 16 -83 25 -128 39 -298 137 -369
214 -19 20 -44 59 -57 86 -13 28 -33 66 -44 84 -17 31 -18 37 -5 51 26 29 79
22 175 -22 52 -24 92 -49 96 -60 3 -10 24 -36 47 -58 l42 -40 113 0 c87 0 113
3 110 13 -3 8 -39 14 -113 17 l-109 5 -19 33 -19 32 47 0 c69 0 53 23 -21 31
-39 4 -89 21 -149 49 -102 49 -128 57 -170 52z m-26 -190 c52 -96 173 -199
320 -272 131 -65 648 -222 777 -235 l60 -7 12 -57 c18 -85 16 -101 -10 -101
-13 0 -59 16 -103 36 -44 20 -96 40 -115 46 -19 5 -78 29 -131 53 -53 24 -118
49 -145 56 -27 7 -76 25 -108 42 -33 16 -119 55 -192 87 -130 57 -224 112
-224 130 0 6 -6 10 -12 10 -14 1 -68 45 -68 55 0 4 -13 18 -30 32 -16 13 -30
29 -30 34 0 6 -9 22 -20 37 -23 32 -43 114 -33 139 7 17 7 17 13 -2 3 -11 20
-48 39 -83z m749 -75 c3 -28 -27 -99 -45 -104 -18 -6 -55 85 -43 108 24 45 83
42 88 -4z"/>
<path d="M1047 964 c-18 -19 18 -24 159 -24 120 0 155 3 152 13 -4 9 -45 13
-154 15 -83 1 -153 0 -157 -4z"/>
</g>
</svg>
