<?xml version="1.0" standalone="no"?>
<!DOCTYPE svg PUBLIC "-//W3C//DTD SVG 20010904//EN"
 "http://www.w3.org/TR/2001/REC-SVG-20010904/DTD/svg10.dtd">
<svg version="1.0" xmlns="http://www.w3.org/2000/svg"
 width="80.000000pt" height="80.000000pt" viewBox="0 0 80.000000 80.000000"
 preserveAspectRatio="xMidYMid meet">

<g transform="translate(0.000000,80.000000) scale(0.100000,-0.100000)"
fill="#000000" stroke="none">
<path d="M302 785 c-104 -29 -157 -66 -219 -154 -81 -112 -101 -222 -63 -343
53 -172 206 -283 385 -282 248 3 431 226 385 470 -16 84 -89 199 -157 246 -99
67 -228 92 -331 63z m126 -137 c8 -8 12 -45 12 -100 l0 -87 91 -3 c75 -2 94
-6 103 -20 8 -13 8 -23 0 -35 -9 -15 -28 -19 -102 -21 l-91 -3 -3 -91 c-2 -74
-6 -93 -20 -102 -13 -8 -23 -8 -35 0 -15 9 -19 28 -21 102 l-3 91 -91 3 c-74
2 -93 6 -102 21 -8 12 -8 22 0 35 9 14 28 18 103 20 l91 3 0 87 c0 89 8 112
40 112 9 0 21 -5 28 -12z"/>
</g>
</svg>
